<?xml version="1.0" encoding="UTF-8"?>
<svg xmlns="http://www.w3.org/2000/svg" xmlns:xlink="http://www.w3.org/1999/xlink" width="30pt" height="30pt" viewBox="0 0 30 30" version="1.1">
<g id="surface1">
<path style=" stroke:none;fill-rule:nonzero;fill:rgb(29.803922%,68.627451%,31.372549%);fill-opacity:1;" d="M 15.003906 0 L 14.996094 0 C 6.726562 0 0 6.726562 0 15 C 0 18.28125 1.058594 21.324219 2.855469 23.792969 L 0.984375 29.363281 L 6.75 27.519531 C 9.125 29.09375 11.953125 30 15.003906 30 C 23.273438 30 30 23.269531 30 15 C 30 6.730469 23.273438 0 15.003906 0 Z M 15.003906 0 "/>
<path style=" stroke:none;fill-rule:nonzero;fill:rgb(98.039216%,98.039216%,98.039216%);fill-opacity:1;" d="M 23.730469 21.183594 C 23.371094 22.203125 21.933594 23.050781 20.789062 23.296875 C 20.003906 23.464844 18.980469 23.597656 15.535156 22.171875 C 11.125 20.34375 8.289062 15.863281 8.066406 15.574219 C 7.855469 15.28125 6.285156 13.203125 6.285156 11.050781 C 6.285156 8.898438 7.378906 7.847656 7.820312 7.398438 C 8.179688 7.03125 8.777344 6.859375 9.351562 6.859375 C 9.539062 6.859375 9.703125 6.871094 9.855469 6.878906 C 10.296875 6.894531 10.515625 6.921875 10.808594 7.617188 C 11.167969 8.488281 12.050781 10.640625 12.15625 10.863281 C 12.261719 11.085938 12.371094 11.386719 12.21875 11.675781 C 12.078125 11.976562 11.953125 12.109375 11.734375 12.363281 C 11.511719 12.617188 11.300781 12.8125 11.082031 13.085938 C 10.878906 13.324219 10.648438 13.582031 10.90625 14.019531 C 11.160156 14.453125 12.042969 15.890625 13.339844 17.046875 C 15.011719 18.535156 16.371094 19.011719 16.855469 19.214844 C 17.21875 19.363281 17.648438 19.328125 17.914062 19.046875 C 18.25 18.6875 18.664062 18.085938 19.085938 17.496094 C 19.386719 17.070312 19.765625 17.019531 20.160156 17.167969 C 20.566406 17.308594 22.710938 18.371094 23.152344 18.589844 C 23.589844 18.808594 23.882812 18.914062 23.988281 19.101562 C 24.09375 19.285156 24.09375 20.15625 23.730469 21.183594 Z M 23.730469 21.183594 "/>
</g>
</svg>
