<?xml version="1.0" encoding="UTF-8"?>
<svg xmlns="http://www.w3.org/2000/svg" xmlns:xlink="http://www.w3.org/1999/xlink" width="30pt" height="30pt" viewBox="0 0 30 30" version="1.1">
<g id="surface1">
<path style=" stroke:none;fill-rule:nonzero;fill:rgb(100%,75.686275%,2.745098%);fill-opacity:1;" d="M 7.5 7.5 L 0 15 L 11.25 15 L 14.0625 14.0625 Z M 7.5 7.5 "/>
<path style=" stroke:none;fill-rule:nonzero;fill:rgb(100%,62.745098%,0%);fill-opacity:1;" d="M 7.5 7.5 L 14.0625 14.0625 L 15 11.25 L 15 7.5 Z M 7.5 7.5 "/>
<path style=" stroke:none;fill-rule:nonzero;fill:rgb(29.803922%,68.627451%,31.372549%);fill-opacity:1;" d="M 7.5 22.5 L 15 30 L 15 18.75 L 14.0625 15.9375 Z M 7.5 22.5 "/>
<path style=" stroke:none;fill-rule:nonzero;fill:rgb(21.960784%,55.686275%,23.529412%);fill-opacity:1;" d="M 7.5 22.5 L 14.0625 15.9375 L 11.25 15 L 7.5 15 Z M 7.5 22.5 "/>
<path style=" stroke:none;fill-rule:nonzero;fill:rgb(12.941176%,58.823529%,95.294118%);fill-opacity:1;" d="M 22.5 22.5 L 30 15 L 18.75 15 L 15.9375 15.9375 Z M 22.5 22.5 "/>
<path style=" stroke:none;fill-rule:nonzero;fill:rgb(9.803922%,46.27451%,82.352941%);fill-opacity:1;" d="M 22.5 22.5 L 15.9375 15.9375 L 15 18.75 L 15 22.5 Z M 22.5 22.5 "/>
<path style=" stroke:none;fill-rule:nonzero;fill:rgb(95.686275%,26.27451%,21.176471%);fill-opacity:1;" d="M 22.5 7.5 L 15 0 L 15 11.25 L 15.9375 14.0625 Z M 22.5 7.5 "/>
<path style=" stroke:none;fill-rule:nonzero;fill:rgb(61.176471%,15.294118%,69.019608%);fill-opacity:1;" d="M 22.5 7.5 L 15.9375 14.0625 L 18.75 15 L 22.5 15 Z M 22.5 7.5 "/>
</g>
</svg>
