<?xml version="1.0" encoding="UTF-8"?>
<svg xmlns="http://www.w3.org/2000/svg" xmlns:xlink="http://www.w3.org/1999/xlink" width="30pt" height="30pt" viewBox="0 0 30 30" version="1.1">
<g id="surface1">
<path style=" stroke:none;fill-rule:nonzero;fill:rgb(9.803922%,46.27451%,82.352941%);fill-opacity:1;" d="M 26.25 0 L 3.75 0 C 1.683594 0 0 1.683594 0 3.75 L 0 26.25 C 0 28.316406 1.683594 30 3.75 30 L 26.25 30 C 28.316406 30 30 28.316406 30 26.25 L 30 3.75 C 30 1.683594 28.316406 0 26.25 0 Z M 26.25 0 "/>
<path style=" stroke:none;fill-rule:nonzero;fill:rgb(98.039216%,98.039216%,98.039216%);fill-opacity:1;" d="M 25.3125 15 L 20.625 15 L 20.625 11.25 C 20.625 10.214844 21.464844 10.3125 22.5 10.3125 L 24.375 10.3125 L 24.375 5.625 L 20.625 5.625 C 17.519531 5.625 15 8.144531 15 11.25 L 15 15 L 11.25 15 L 11.25 19.6875 L 15 19.6875 L 15 30 L 20.625 30 L 20.625 19.6875 L 23.4375 19.6875 Z M 25.3125 15 "/>
</g>
</svg>
