<?xml version="1.0" encoding="UTF-8"?>
<svg xmlns="http://www.w3.org/2000/svg" xmlns:xlink="http://www.w3.org/1999/xlink" width="30pt" height="30pt" viewBox="0 0 30 30" version="1.1">
<g id="surface1">
<path style=" stroke:none;fill-rule:nonzero;fill:rgb(95.686275%,26.27451%,21.176471%);fill-opacity:1;" d="M 28.726562 6.675781 C 27.910156 5.226562 27.027344 4.960938 25.230469 4.859375 C 23.433594 4.738281 18.917969 4.6875 15.003906 4.6875 C 11.082031 4.6875 6.5625 4.738281 4.769531 4.859375 C 2.976562 4.960938 2.089844 5.226562 1.269531 6.675781 C 0.429688 8.121094 0 10.609375 0 14.996094 C 0 15 0 15 0 15 C 0 15.003906 0 15.003906 0 15.003906 L 0 15.007812 C 0 19.375 0.429688 21.882812 1.269531 23.3125 C 2.089844 24.761719 2.972656 25.023438 4.769531 25.144531 C 6.5625 25.25 11.082031 25.3125 15.003906 25.3125 C 18.917969 25.3125 23.433594 25.25 25.230469 25.148438 C 27.03125 25.027344 27.914062 24.761719 28.726562 23.316406 C 29.574219 21.886719 30 19.375 30 15.011719 C 30 15.011719 30 15.003906 30 15 C 30 15 30 15 30 14.996094 C 30 10.609375 29.574219 8.121094 28.726562 6.675781 Z M 28.726562 6.675781 "/>
<path style=" stroke:none;fill-rule:nonzero;fill:rgb(98.039216%,98.039216%,98.039216%);fill-opacity:1;" d="M 11.25 20.625 L 11.25 9.375 L 20.625 15 Z M 11.25 20.625 "/>
</g>
</svg>
